<?xml version="1.0" encoding="UTF-8"?>
<svg id="COULEURS" xmlns="http://www.w3.org/2000/svg" xmlns:xlink="http://www.w3.org/1999/xlink" viewBox="0 0 454.78 534.15">
  <defs>
    <style>
      .cls-1 {
        fill: none;
      }

      .cls-2 {
        fill: url(#Dégradé_sans_nom_3);
      }

      .cls-3 {
        fill: url(#Dégradé_sans_nom_3-3);
      }

      .cls-4 {
        fill: url(#Dégradé_sans_nom_3-2);
      }

      .cls-5 {
        fill: url(#Dégradé_sans_nom_3-4);
      }

      .cls-6 {
        clip-path: url(#clippath-1);
      }

      .cls-7 {
        clip-path: url(#clippath-3);
      }

      .cls-8 {
        clip-path: url(#clippath-4);
      }

      .cls-9 {
        clip-path: url(#clippath-2);
      }

      .cls-10 {
        clip-path: url(#clippath);
      }
    </style>
    <clipPath id="clippath">
      <path class="cls-1" d="M129.42,73.82c-5.53,12.08-63.64,157.21-84.24,198.76-2.95,5.95-16.54,26.02-32.21,26.02H0v2.97h80.45v-3.13l-21.67-.59s-11.57-7-7.8-25.28c1.75-8.49,86.75-210.35,86.75-210.35l-7.16-13.26s5.2,10.98-1.15,24.85"/>
    </clipPath>
    <linearGradient id="Dégradé_sans_nom_3" data-name="Dégradé sans nom 3" x1="6676.86" y1="3176.57" x2="6677.86" y2="3176.57" gradientTransform="translate(-919637.8 437699.96) scale(137.74 -137.74)" gradientUnits="userSpaceOnUse">
      <stop offset="0" stop-color="#b9822d"/>
      <stop offset=".04" stop-color="#b9822d"/>
      <stop offset=".33" stop-color="#e6c36f"/>
      <stop offset=".63" stop-color="#e6c16f"/>
      <stop offset=".86" stop-color="#a87633"/>
      <stop offset="1" stop-color="#a87633"/>
    </linearGradient>
    <clipPath id="clippath-1">
      <path class="cls-1" d="M149.33,194.04v2.68h131.75c16.2,0,32.17,4.37,45.82,13.09,18.69,11.94,37.7,34.45,36.53,76.55-2.28,81.64-92.49,72.51-115.33,72.51h-68.24v2.12h70.39c13.29,0,26.1,5.09,35.69,14.3,15.29,14.69,36.38,40.52,44.37,76.64,13.13,59.38,62.23,82.21,85.07,82.21h39.39v-2.89h-30.83s-24.55,1.18-38.25-38.22c-13.7-39.39-9.13-93.06-90.78-131.89,0,0,56.37-5.4,83.93-33.68,22.2-22.78,39.19-111.1-61.35-130.46-11.54-2.22-23.28-3.18-35.03-3.17l-133.13.2Z"/>
    </clipPath>
    <linearGradient id="Dégradé_sans_nom_3-2" data-name="Dégradé sans nom 3" x1="6704.46" y1="3165.75" x2="6705.46" y2="3165.75" gradientTransform="translate(-2047718.3 967338.49) scale(305.45 -305.45)" xlink:href="#Dégradé_sans_nom_3"/>
    <clipPath id="clippath-2">
      <path class="cls-1" d="M139.46,0l-12.99,40.96,113.9,228.81s15.5,30.15,4.02,30.21h-13.09v2.55h76.5v-2.3h-5.77c-4.2,0-8.03-2.37-9.89-6.14-.97-1.98-2.2-4.42-3.68-7.3C283.97,278.06,139.46,0,139.46,0Z"/>
    </clipPath>
    <linearGradient id="Dégradé_sans_nom_3-3" data-name="Dégradé sans nom 3" x1="6688.95" y1="3171.91" x2="6689.95" y2="3171.91" gradientTransform="translate(-1212773.8 575310.22) scale(181.33 -181.33)" xlink:href="#Dégradé_sans_nom_3"/>
    <clipPath id="clippath-3">
      <path class="cls-1" d="M147.33,191.83v344.31h309.45V191.83H147.33ZM204.51,197.73l-2.37-4.76,37.56-.05c.84,1.62,1.67,3.22,2.5,4.82h-37.7Z"/>
    </clipPath>
    <clipPath id="clippath-4">
      <path class="cls-1" d="M149.33,194.04v2.68h131.75c16.2,0,32.17,4.37,45.82,13.09,18.69,11.94,37.7,34.45,36.53,76.55-2.28,81.64-92.49,72.51-115.33,72.51h-68.24v2.12h70.39c13.29,0,26.1,5.09,35.69,14.3,15.29,14.69,36.38,40.52,44.37,76.64,13.13,59.38,62.23,82.21,85.07,82.21h39.39v-2.89h-30.83s-24.55,1.18-38.25-38.22c-13.7-39.39-9.13-93.06-90.78-131.89,0,0,56.37-5.4,83.93-33.68,22.2-22.78,39.19-111.1-61.35-130.46-11.54-2.22-23.28-3.18-35.03-3.17l-133.13.2Z"/>
    </clipPath>
    <linearGradient id="Dégradé_sans_nom_3-4" data-name="Dégradé sans nom 3" x1="6704.46" y1="3165.75" x2="6705.46" y2="3165.75" gradientTransform="translate(-2047718.3 967338.49) scale(305.45 -305.45)" xlink:href="#Dégradé_sans_nom_3"/>
  </defs>
  <g class="cls-10">
    <rect class="cls-2" x="0" y="48.97" width="137.73" height="252.6"/>
  </g>
  <g>
    <g class="cls-6">
      <rect class="cls-4" x="149.33" y="193.83" width="305.45" height="340.31"/>
    </g>
    <g class="cls-9">
      <rect class="cls-3" x="126.48" width="181.33" height="302.54"/>
    </g>
    <g class="cls-7">
      <g class="cls-8">
        <rect class="cls-5" x="149.33" y="193.83" width="305.45" height="340.31"/>
      </g>
    </g>
  </g>
</svg>